{
 "cells": [
  {
   "cell_type": "markdown",
   "id": "84fa18e2",
   "metadata": {},
   "source": [
    "#11.1 Audio Extraction"
   ]
  },
  {
   "cell_type": "code",
   "execution_count": null,
   "id": "0bbe037b",
   "metadata": {},
   "outputs": [
    {
     "name": "stderr",
     "output_type": "stream",
     "text": [
      "ffmpeg version 8.0 Copyright (c) 2000-2025 the FFmpeg developers\n",
      "  built with Apple clang version 17.0.0 (clang-1700.0.13.3)\n",
      "  configuration: --prefix=/opt/homebrew/Cellar/ffmpeg/8.0_1 --enable-shared --enable-pthreads --enable-version3 --cc=clang --host-cflags= --host-ldflags='-Wl,-ld_classic' --enable-ffplay --enable-gnutls --enable-gpl --enable-libaom --enable-libaribb24 --enable-libbluray --enable-libdav1d --enable-libharfbuzz --enable-libjxl --enable-libmp3lame --enable-libopus --enable-librav1e --enable-librist --enable-librubberband --enable-libsnappy --enable-libsrt --enable-libssh --enable-libsvtav1 --enable-libtesseract --enable-libtheora --enable-libvidstab --enable-libvmaf --enable-libvorbis --enable-libvpx --enable-libwebp --enable-libx264 --enable-libx265 --enable-libxml2 --enable-libxvid --enable-lzma --enable-libfontconfig --enable-libfreetype --enable-frei0r --enable-libass --enable-libopencore-amrnb --enable-libopencore-amrwb --enable-libopenjpeg --enable-libspeex --enable-libsoxr --enable-libzmq --enable-libzimg --disable-libjack --disable-indev=jack --enable-videotoolbox --enable-audiotoolbox --enable-neon\n",
      "  libavutil      60.  8.100 / 60.  8.100\n",
      "  libavcodec     62. 11.100 / 62. 11.100\n",
      "  libavformat    62.  3.100 / 62.  3.100\n",
      "  libavdevice    62.  1.100 / 62.  1.100\n",
      "  libavfilter    11.  4.100 / 11.  4.100\n",
      "  libswscale      9.  1.100 /  9.  1.100\n",
      "  libswresample   6.  1.100 /  6.  1.100\n",
      "Input #0, mov,mp4,m4a,3gp,3g2,mj2, from './files/podcast.mp4':\n",
      "  Metadata:\n",
      "    major_brand     : isom\n",
      "    minor_version   : 512\n",
      "    compatible_brands: isomiso2avc1mp41\n",
      "    encoder         : Lavf61.7.100\n",
      "  Duration: 00:04:59.98, start: 0.000000, bitrate: 335 kb/s\n",
      "  Stream #0:0[0x1](und): Video: h264 (High) (avc1 / 0x31637661), yuv420p(tv, bt709, progressive), 1920x1080 [SAR 1:1 DAR 16:9], 199 kb/s, 30 fps, 30 tbr, 15360 tbn (default)\n",
      "    Metadata:\n",
      "      handler_name    : ISO Media file produced by Google Inc.\n",
      "      vendor_id       : [0][0][0][0]\n",
      "  Stream #0:1[0x2](und): Audio: aac (LC) (mp4a / 0x6134706D), 44100 Hz, stereo, fltp, 127 kb/s (default)\n",
      "    Metadata:\n",
      "      handler_name    : ISO Media file produced by Google Inc.\n",
      "      vendor_id       : [0][0][0][0]\n",
      "Stream mapping:\n",
      "  Stream #0:1 -> #0:0 (aac (native) -> mp3 (libmp3lame))\n",
      "Press [q] to stop, [?] for help\n",
      "Output #0, mp3, to './files/podcast.mp3':\n",
      "  Metadata:\n",
      "    major_brand     : isom\n",
      "    minor_version   : 512\n",
      "    compatible_brands: isomiso2avc1mp41\n",
      "    TSSE            : Lavf62.3.100\n",
      "  Stream #0:0(und): Audio: mp3, 44100 Hz, stereo, fltp (default)\n",
      "    Metadata:\n",
      "      encoder         : Lavc62.11.100 libmp3lame\n",
      "      handler_name    : ISO Media file produced by Google Inc.\n",
      "      vendor_id       : [0][0][0][0]\n",
      "[out#0/mp3 @ 0x139604630] video:0KiB audio:4688KiB subtitle:0KiB other streams:0KiB global headers:0KiB muxing overhead: 0.007395%\n",
      "size=    4688KiB time=00:04:59.97 bitrate= 128.0kbits/s speed= 123x elapsed=0:00:02.43    \n"
     ]
    }
   ],
   "source": [
    "import subprocess\n",
    "\n",
    "def extract_audio_from_video(video_path, audio_path):\n",
    "    command = [\n",
    "        \"ffmpeg\",\n",
    "        \"-i\",\n",
    "        video_path,\n",
    "        \"-vn\",\n",
    "        audio_path,\n",
    "    ]\n",
    "    subprocess.run(command)\n",
    "\n",
    "\n",
    "extract_audio_from_video(\n",
    "    \"./files/podcast.mp4\",\n",
    "    \"./files/podcast.mp3\",\n",
    ")"
   ]
  },
  {
   "cell_type": "markdown",
   "id": "d8ccfa30",
   "metadata": {},
   "source": [
    "#11.2 Cutting The Audio"
   ]
  },
  {
   "cell_type": "code",
   "execution_count": 1,
   "id": "c3a074e5",
   "metadata": {},
   "outputs": [],
   "source": [
    "import subprocess\n",
    "from pydub import AudioSegment\n",
    "\n",
    "\n",
    "def extract_audio_from_video(video_path, audio_path):\n",
    "    command = [\n",
    "        \"ffmpeg\",\n",
    "        \"-i\",\n",
    "        video_path,\n",
    "        \"-vn\",\n",
    "        audio_path,\n",
    "    ]\n",
    "    subprocess.run(command)\n",
    "\n",
    "\n",
    "track = AudioSegment.from_mp3(\"./files/podcast.mp3\")\n",
    "\n",
    "ten_minutes = 1 * 60 * 1000"
   ]
  },
  {
   "cell_type": "code",
   "execution_count": 2,
   "id": "ce1a85df",
   "metadata": {},
   "outputs": [],
   "source": [
    "import math\n",
    "\n",
    "chunks = math.ceil(len(track) / ten_minutes)\n",
    "\n",
    "for i in range(chunks):\n",
    "    start_time = i * ten_minutes\n",
    "    end_time = (i + 1) * ten_minutes\n",
    "\n",
    "    chunk = track[start_time:end_time]\n",
    "\n",
    "    chunk.export(f\"./files/chunks/chunk_{i}.mp3\", format=\"mp3\")"
   ]
  },
  {
   "cell_type": "markdown",
   "id": "b5c444a0",
   "metadata": {},
   "source": [
    "#11.3 Whisper Transcript "
   ]
  },
  {
   "cell_type": "code",
   "execution_count": null,
   "id": "b2f33e96",
   "metadata": {},
   "outputs": [],
   "source": [
    "import subprocess\n",
    "from pydub import AudioSegment\n",
    "import math\n",
    "\n",
    "\n",
    "def extract_audio_from_video(video_path, audio_path):\n",
    "    command = [\n",
    "        \"ffmpeg\",\n",
    "        \"-i\",\n",
    "        video_path,\n",
    "        \"-vn\",\n",
    "        audio_path,\n",
    "    ]\n",
    "    subprocess.run(command)\n",
    "\n",
    "\n",
    "def cut_audio_in_chunks(audio_path, chunk_size, chunks_folder):\n",
    "    track = AudioSegment.from_mp3(audio_path)\n",
    "    chunk_len = chunk_size * 60 * 1000\n",
    "    chunks = math.ceil(len(track) / chunk_len)\n",
    "    for i in range(chunks):\n",
    "        start_time = i * chunk_len\n",
    "        end_time = (i + 1) * chunk_len\n",
    "\n",
    "        chunk = track[start_time:end_time]\n",
    "\n",
    "        chunk.export(f\"./{chunks_folder}/chunk_{i}.mp3\", format=\"mp3\")"
   ]
  },
  {
   "cell_type": "code",
   "execution_count": 4,
   "id": "31ff437f",
   "metadata": {},
   "outputs": [],
   "source": [
    "import openai\n",
    "import glob\n",
    "\n",
    "\n",
    "def transcribe_chunks(chunk_folder, destination):\n",
    "    files = glob.glob(f\"{chunk_folder}/*.mp3\")\n",
    "    final_transcript = \"\"\n",
    "    for file in files:\n",
    "        with open(file, \"rb\") as audio_file:\n",
    "            # transcript = openai.Audio.transcribe(\n",
    "            #     \"whisper-1\",\n",
    "            #     audio_file,\n",
    "            # )\n",
    "            transcript = openai.audio.transcriptions.create(\n",
    "                model=\"whisper-1\",\n",
    "                file=audio_file,\n",
    "                language=\"ko\"\n",
    "            )\n",
    "            final_transcript += transcript.text\n",
    "            # final_transcript += transcript[\"text\"]\n",
    "    with open(destination, \"w\") as file:\n",
    "        file.write(final_transcript)\n",
    "\n",
    "\n",
    "transcribe_chunks(\"./files/chunks\", \"./files/transcript.txt\")"
   ]
  }
 ],
 "metadata": {
  "kernelspec": {
   "display_name": "env",
   "language": "python",
   "name": "python3"
  },
  "language_info": {
   "codemirror_mode": {
    "name": "ipython",
    "version": 3
   },
   "file_extension": ".py",
   "mimetype": "text/x-python",
   "name": "python",
   "nbconvert_exporter": "python",
   "pygments_lexer": "ipython3",
   "version": "3.11.8"
  }
 },
 "nbformat": 4,
 "nbformat_minor": 5
}
